<mxfile host="app.diagrams.net" modified="2023-08-28T13:39:11.448Z" agent="Mozilla/5.0 (Windows NT 10.0; Win64; x64) AppleWebKit/537.36 (KHTML, like Gecko) Chrome/117.0.0.0 Safari/537.36" version="21.6.9" etag="d13vCPwpMn4tIGkdzToA" type="github">
  <diagram name="第 1 页" id="0WBx2tGwtzTRR0WFnbjl">
    <mxGraphModel>
      <root>
        <mxCell id="0" />
        <mxCell id="1" parent="0" />
      </root>
    </mxGraphModel>
  </diagram>
</mxfile>
